<svg width="24" height="25" viewBox="0 0 24 25" fill="none" xmlns="http://www.w3.org/2000/svg">
<g filter="url(#filter0_d_21_2)">
<path d="M18.916 2.628C18.7293 2.628 18.5147 2.628 18.272 2.628C18.0293 2.60933 17.7493 2.59067 17.432 2.572C16.8907 2.55333 16.396 2.544 15.948 2.544C15.5 2.52533 15.2013 2.49733 15.052 2.46V4.588C14.7907 4.79333 14.604 5.204 14.492 5.82C14.3427 7.668 14.2493 9.152 14.212 10.272C14.1747 11.3733 14.1653 12.232 14.184 12.848C14.2027 13.2213 14.2213 13.5387 14.24 13.8C14.2587 14.0427 14.2867 14.2387 14.324 14.388L14.632 15.872L14.492 16.096L11.104 16.852H11.02C10.9827 16.852 10.936 16.8613 10.88 16.88C10.8427 16.88 10.8053 16.88 10.768 16.88L9.844 16.236C9.844 16.2173 9.85333 16.208 9.872 16.208C9.89067 16.1893 9.90933 16.1613 9.928 16.124C9.94667 16.068 9.96533 15.984 9.984 15.872C10.0027 15.7413 10.012 15.564 10.012 15.34C10.012 15.1533 10.012 15.0227 10.012 14.948C10.0307 14.8733 10.0213 14.752 9.984 14.584C9.94667 14.36 9.94667 13.856 9.984 13.072C10.0027 12.288 9.872 11.896 9.592 11.896C9.62933 11.6907 9.648 11.448 9.648 11.168C9.66667 10.888 9.68533 10.6267 9.704 10.384C9.72267 10.2347 9.732 10.0947 9.732 9.964C9.732 9.81467 9.732 9.66533 9.732 9.516C9.75067 9.49733 9.76 9.47867 9.76 9.46C9.77867 9.44133 9.79733 9.42267 9.816 9.404L9.844 9.376C9.93733 9.22667 9.984 9.11467 9.984 9.04C9.984 8.94667 10.0213 8.74133 10.096 8.424V7.22C10.4507 7.276 10.5253 6.97733 10.32 6.324C10.152 5.61467 10.124 5.26 10.236 5.26C10.292 5.01733 10.348 4.73733 10.404 4.42C10.4413 4.15867 10.4787 3.87867 10.516 3.58C10.5533 3.26267 10.5907 2.94533 10.628 2.628L10.516 2.544C10.3853 2.656 10.2267 2.69333 10.04 2.656C9.872 2.61867 9.71333 2.59067 9.564 2.572C9.13467 2.628 8.77067 2.67467 8.472 2.712C8.17333 2.74933 7.93067 2.81467 7.744 2.908C7.632 2.94533 7.52933 2.97333 7.436 2.992C7.34267 3.01067 7.296 3.14133 7.296 3.384L5.7 3.72L5.196 3.356C5.12133 3.16933 5.056 2.992 5 2.824C4.944 2.63733 4.90667 2.41333 4.888 2.152L5.224 1.34C5.48533 1.30267 5.69067 1.284 5.84 1.284C6.008 1.284 6.12933 1.29333 6.204 1.312C6.29733 1.312 6.36267 1.32133 6.4 1.34C6.43733 1.35867 6.47467 1.368 6.512 1.368C6.71733 1.27467 6.932 1.19067 7.156 1.116C7.38 1.02267 7.64133 0.938665 7.94 0.863999C8.25733 0.789332 8.62133 0.723999 9.032 0.668C9.46133 0.593333 9.97467 0.518666 10.572 0.443999L13.12 0.331999L13.4 0.555999C13.4933 0.612 13.596 0.668 13.708 0.723999C13.82 0.761333 13.932 0.78 14.044 0.78C14.1747 0.798666 14.296 0.752 14.408 0.64C14.4453 0.602666 14.4827 0.546666 14.52 0.471999C14.6693 0.434666 14.912 0.434666 15.248 0.471999C15.6027 0.490666 16.1347 0.556 16.844 0.668C18.076 0.873332 18.888 0.985332 19.28 1.004L19.448 1.284V2.208L18.916 2.628Z" fill="#0B5BB7"/>
</g>
<defs>
<filter id="filter0_d_21_2" x="0.887939" y="0.33197" width="22.5601" height="24.548" filterUnits="userSpaceOnUse" color-interpolation-filters="sRGB">
<feFlood flood-opacity="0" result="BackgroundImageFix"/>
<feColorMatrix in="SourceAlpha" type="matrix" values="0 0 0 0 0 0 0 0 0 0 0 0 0 0 0 0 0 0 127 0" result="hardAlpha"/>
<feOffset dy="4"/>
<feGaussianBlur stdDeviation="2"/>
<feComposite in2="hardAlpha" operator="out"/>
<feColorMatrix type="matrix" values="0 0 0 0 0 0 0 0 0 0 0 0 0 0 0 0 0 0 0.25 0"/>
<feBlend mode="normal" in2="BackgroundImageFix" result="effect1_dropShadow_21_2"/>
<feBlend mode="normal" in="SourceGraphic" in2="effect1_dropShadow_21_2" result="shape"/>
</filter>
</defs>
</svg>
