<svg width="95" height="30" viewBox="0 0 95 30" fill="none" xmlns="http://www.w3.org/2000/svg">
<g filter="url(#filter0_d_20_2)">
<path d="M4.35227 2.82386V0.636363H19.625V2.82386H13.2216V21H10.7557V2.82386H4.35227ZM25.5288 21.358C24.561 21.358 23.6826 21.1757 22.8938 20.8111C22.105 20.4399 21.4786 19.9062 21.0146 19.2102C20.5505 18.5076 20.3185 17.6591 20.3185 16.6648C20.3185 15.7898 20.4909 15.0805 20.8356 14.5369C21.1803 13.9867 21.641 13.5559 22.2177 13.2443C22.7944 12.9328 23.4308 12.7008 24.1268 12.5483C24.8294 12.3892 25.5354 12.2633 26.2447 12.1705C27.1727 12.0511 27.9251 11.9616 28.5018 11.902C29.0851 11.8357 29.5094 11.7263 29.7745 11.5739C30.0463 11.4214 30.1822 11.1562 30.1822 10.7784V10.6989C30.1822 9.7178 29.9137 8.95549 29.3768 8.41193C28.8465 7.86837 28.0411 7.59659 26.9606 7.59659C25.8403 7.59659 24.962 7.84186 24.3256 8.33239C23.6893 8.82292 23.2418 9.34659 22.9833 9.90341L20.756 9.10795C21.1538 8.17992 21.6841 7.45739 22.3469 6.94034C23.0165 6.41667 23.7456 6.05208 24.5344 5.84659C25.3299 5.63447 26.1121 5.52841 26.881 5.52841C27.3716 5.52841 27.935 5.58807 28.5714 5.70739C29.2144 5.82007 29.8342 6.0554 30.4308 6.41335C31.034 6.77131 31.5344 7.31155 31.9322 8.03409C32.3299 8.75663 32.5288 9.72443 32.5288 10.9375V21H30.1822V18.9318H30.0629C29.9038 19.2633 29.6386 19.6179 29.2674 19.9957C28.8962 20.3736 28.4023 20.6951 27.7859 20.9602C27.1694 21.2254 26.417 21.358 25.5288 21.358ZM25.8867 19.25C26.8147 19.25 27.5969 19.0677 28.2333 18.7031C28.8763 18.3385 29.3602 17.8679 29.685 17.2912C30.0165 16.7145 30.1822 16.108 30.1822 15.4716V13.3239C30.0827 13.4432 29.864 13.5526 29.5259 13.652C29.1945 13.7448 28.81 13.8277 28.3725 13.9006C27.9416 13.9669 27.5207 14.0265 27.1097 14.0795C26.7054 14.1259 26.3772 14.1657 26.1254 14.1989C25.5155 14.2784 24.9454 14.4077 24.4151 14.5866C23.8915 14.759 23.4672 15.0208 23.1424 15.3722C22.8242 15.7169 22.6651 16.1875 22.6651 16.7841C22.6651 17.5994 22.9667 18.2159 23.57 18.6335C24.1798 19.0445 24.9521 19.25 25.8867 19.25ZM69.9051 21C69.8118 21 69.7091 20.986 69.5971 20.958C69.4945 20.93 69.3965 20.9067 69.3031 20.888L66.8111 20.272L63.9551 19.32C63.6751 19.2267 63.5351 18.956 63.5351 18.508V9.198C63.5351 8.974 63.6145 8.78733 63.7731 8.638L66.5731 5.838C66.7318 5.67933 66.9185 5.6 67.1331 5.6H71.6131C71.8278 5.6 72.0145 5.67933 72.1731 5.838L74.9731 8.638C75.1318 8.78733 75.2111 8.974 75.2111 9.198V14.938H67.6931L67.5951 16.8L69.5831 17.458L73.1531 17.71C73.3118 17.738 73.3911 17.8453 73.3911 18.032V20.65C73.3911 20.8833 73.2745 21 73.0411 21H69.9051ZM69.3451 12.74H69.6111C70.0685 12.74 70.4325 12.5673 70.7031 12.222C70.9831 11.8767 71.1231 11.41 71.1231 10.822V10.542C71.1231 9.96333 70.9831 9.50133 70.7031 9.156C70.4325 8.81067 70.0685 8.638 69.6111 8.638H69.3311C68.8831 8.638 68.5238 8.81067 68.2531 9.156C67.9918 9.50133 67.8611 9.96333 67.8611 10.542V10.822C67.8611 11.41 67.9918 11.8767 68.2531 12.222C68.5238 12.5673 68.8878 12.74 69.3451 12.74ZM78.4753 21C78.242 21 78.1253 20.8833 78.1253 20.65V2.688C78.1253 2.45467 78.242 2.338 78.4753 2.338H86.0633C86.2873 2.338 86.474 2.39867 86.6233 2.52L89.8433 5.712C89.946 5.80533 90.0066 5.88467 90.0253 5.95C90.0533 6.01533 90.0673 6.12267 90.0673 6.272V10.108C90.0673 10.2293 90.0206 10.3367 89.9273 10.43L88.3873 11.928L87.0853 13.048L88.6253 15.092L90.2073 18.48C90.2446 18.564 90.2726 18.648 90.2913 18.732C90.3193 18.8067 90.3333 18.9 90.3333 19.012V20.65C90.3333 20.8833 90.2166 21 89.9833 21H86.2873C86.082 21 85.942 20.9067 85.8673 20.72L83.6133 14.168H82.5633V20.65C82.5633 20.8833 82.4466 21 82.2133 21H78.4753ZM84.1033 10.738C84.878 10.738 85.4053 10.5793 85.6853 10.262C85.9653 9.93533 86.1053 9.32867 86.1053 8.442C86.1053 7.546 85.9653 6.93933 85.6853 6.622C85.4053 6.29533 84.878 6.132 84.1033 6.132C83.338 6.132 82.8106 6.29533 82.5213 6.622C82.232 6.93933 82.0873 7.546 82.0873 8.442C82.0873 9.32867 82.232 9.93533 82.5213 10.262C82.8106 10.5793 83.338 10.738 84.1033 10.738Z" fill="black"/>
<path d="M36.2741 21C36.0407 21 35.9241 20.8833 35.9241 20.65V18.018C35.9241 17.8967 35.9287 17.7987 35.9381 17.724C35.9567 17.6493 36.0127 17.5887 36.1061 17.542L39.7741 15.862V13.37L36.1621 11.13C36.0034 11.0367 35.9241 10.8967 35.9241 10.71V5.572C35.9241 5.42267 35.9334 5.31533 35.9521 5.25C35.9707 5.17533 36.0407 5.096 36.1621 5.012L39.8441 2.52C39.9374 2.464 40.0214 2.422 40.0961 2.394C40.1801 2.35667 40.2827 2.338 40.4041 2.338H44.1841C44.4174 2.338 44.5341 2.45467 44.5341 2.688V5.068C44.5341 5.27333 44.4641 5.41333 44.3241 5.488L40.6561 7V9.59L44.3241 11.69C44.4641 11.7553 44.5341 11.9047 44.5341 12.138V18.228C44.5341 18.3027 44.5201 18.382 44.4921 18.466C44.4734 18.55 44.4267 18.6107 44.3521 18.648L39.9561 20.832C39.9001 20.86 39.8301 20.8973 39.7461 20.944C39.6714 20.9813 39.5967 21 39.5221 21H36.2741ZM47.823 21C47.5896 21 47.473 20.8833 47.473 20.65V2.688C47.473 2.45467 47.5896 2.338 47.823 2.338H51.785C52.0183 2.338 52.135 2.45467 52.135 2.688V10.108H53.871L54.795 6.622L55.635 2.52C55.6536 2.464 55.6956 2.422 55.761 2.394C55.8356 2.35667 55.943 2.338 56.083 2.338H60.115C60.3483 2.338 60.465 2.45467 60.465 2.688V4.438C60.465 4.54067 60.451 4.64333 60.423 4.746C60.395 4.83933 60.3716 4.92333 60.353 4.998L58.645 9.1L57.455 11.34L58.673 13.552L60.731 18.228C60.7683 18.2933 60.7963 18.3633 60.815 18.438C60.8336 18.5127 60.843 18.62 60.843 18.76V20.65C60.843 20.8833 60.7263 21 60.493 21H56.321C56.2556 21 56.1716 20.9907 56.069 20.972C55.9756 20.944 55.9196 20.8833 55.901 20.79L54.865 16.352L54.095 13.818H52.135V20.65C52.135 20.8833 52.0183 21 51.785 21H47.823Z" fill="#0B5BB7"/>
</g>
<defs>
<filter id="filter0_d_20_2" x="0.352295" y="0.636353" width="93.9811" height="28.7216" filterUnits="userSpaceOnUse" color-interpolation-filters="sRGB">
<feFlood flood-opacity="0" result="BackgroundImageFix"/>
<feColorMatrix in="SourceAlpha" type="matrix" values="0 0 0 0 0 0 0 0 0 0 0 0 0 0 0 0 0 0 127 0" result="hardAlpha"/>
<feOffset dy="4"/>
<feGaussianBlur stdDeviation="2"/>
<feComposite in2="hardAlpha" operator="out"/>
<feColorMatrix type="matrix" values="0 0 0 0 0 0 0 0 0 0 0 0 0 0 0 0 0 0 0.25 0"/>
<feBlend mode="normal" in2="BackgroundImageFix" result="effect1_dropShadow_20_2"/>
<feBlend mode="normal" in="SourceGraphic" in2="effect1_dropShadow_20_2" result="shape"/>
</filter>
</defs>
</svg>
